<?xml version="1.0" encoding="utf-8"?><svg viewBox="0 0 908 908" xmlns="http://www.w3.org/2000/svg" xmlns:xlink="http://www.w3.org/1999/xlink"><style>:root>svg{display:none}:root>svg:target{display:block}</style><svg viewBox="0 0 155.139 155.139" id="fb" xmlns="http://www.w3.org/2000/svg"><path d="M89.584 155.139V84.378h23.742l3.562-27.585H89.584V39.184c0-7.984 2.208-13.425 13.67-13.425l14.595-.006V1.08C115.325.752 106.661 0 96.577 0 75.52 0 61.104 12.853 61.104 36.452v20.341H37.29v27.585h23.814v70.761h28.48z"/></svg><svg viewBox="0 0 569 569.549" id="practice" xmlns="http://www.w3.org/2000/svg"><path d="M1.527 52.246l37.985 66.469a9.488 9.488 0 005.933 4.5l35.438 8.86 121.543 121.542 13.43-13.426L92.41 116.75a9.47 9.47 0 00-4.406-2.5l-34.05-8.543-32.34-56.625L49.34 21.355l56.648 32.372 8.547 34.05a9.47 9.47 0 002.496 4.414l123.446 123.446 13.425-13.43L132.36 80.664l-8.86-35.418a9.511 9.511 0 00-4.5-5.945L52.527 1.32a9.496 9.496 0 00-11.394 1.527L3.153 40.832a9.495 9.495 0 00-1.626 11.414zm394.786 134.899L187.41 396.05l-13.43-13.43 208.907-208.9zM150.848 403.441a9.493 9.493 0 00-8.141-4.605H85.734a9.486 9.486 0 00-8.136 4.605l-28.489 47.477a9.495 9.495 0 000 9.781l28.489 47.477a9.495 9.495 0 008.136 4.605h56.973a9.501 9.501 0 008.14-4.605l28.485-47.477a9.495 9.495 0 000-9.781zm-13.512 90.348H91.109L68.32 455.81l22.79-37.985h46.226l22.789 37.985zm0 0" fill="#ffffff"/><path d="M456.063 227.914c62.714.211 113.73-50.46 113.94-113.176a113.589 113.589 0 00-3.487-28.308c-1.266-5.09-6.418-8.188-11.508-6.922a9.522 9.522 0 00-4.414 2.496l-59.11 59.07-46.898-15.629-15.64-46.886 59.109-59.121a9.495 9.495 0 00-4.453-15.934c-60.82-15.402-122.606 21.414-138.008 82.23a113.327 113.327 0 00-3.477 28.23c.024 7.477.793 14.93 2.309 22.25L136.469 344.169a112.023 112.023 0 00-22.246-2.309C51.289 341.86.273 392.875.273 455.81c0 62.93 51.016 113.945 113.95 113.945 62.93 0 113.945-51.016 113.945-113.945a111.742 111.742 0 00-2.309-22.25l49.786-49.786 21.773 21.774a9.499 9.499 0 0013.43 0l4.746-4.75c4.164-4.137 10.894-4.137 15.058 0 4.16 4.148 4.168 10.883.02 15.043l-.02.02-4.746 4.745c-3.707 3.707-3.707 9.72 0 13.426L439.18 547.305c29.793 30.066 78.316 30.285 108.382.492 30.063-29.793 30.282-78.32.489-108.383-.16-.164-.324-.328-.489-.492L434.29 325.652c-3.707-3.707-9.719-3.707-13.426 0l-4.746 4.746c-4.168 4.141-10.894 4.141-15.062 0-4.157-4.148-4.168-10.882-.02-15.039.008-.007.016-.011.02-.02l4.75-4.75c3.707-3.706 3.707-9.718 0-13.425l-21.774-21.773 49.785-49.786a111.733 111.733 0 0022.247 2.31zm37.308 322.852a57.7 57.7 0 01-20.195-3.684l74.16-74.164c11.191 29.77-3.867 62.973-33.637 74.164a57.6 57.6 0 01-20.328 3.684zM385.797 303.973c-10.516 12.543-8.867 31.238 3.676 41.75 11.023 9.238 27.09 9.23 38.101-.028l106.563 106.657c1.156 1.16 2.238 2.382 3.285 3.625l-81.188 81.187a55.28 55.28 0 01-3.629-3.285L345.961 427.227c10.516-12.543 8.867-31.239-3.676-41.75-11.023-9.243-27.094-9.23-38.105.023l-15.192-15.191 81.614-81.493zm38.344-95.504L208.73 423.836a9.51 9.51 0 00-2.508 9.023c13.027 51.16-17.887 103.196-69.051 116.22-51.16 13.026-103.195-17.888-116.223-69.052-13.023-51.16 17.89-103.195 69.055-116.222a95.649 95.649 0 0147.168 0 9.58 9.58 0 009.023-2.504l215.36-215.371a9.49 9.49 0 002.496-9.02c-12.938-50.562 17.562-102.039 68.125-114.98a94.55 94.55 0 0129.281-2.766l-50.09 50.11a9.487 9.487 0 00-2.297 9.71l18.989 56.977a9.504 9.504 0 006.011 6l56.977 18.992a9.496 9.496 0 009.71-2.289l50.09-50.09a86.32 86.32 0 01.173 5.39c.265 52.177-41.813 94.688-93.989 94.958a94.602 94.602 0 01-23.918-2.953 9.504 9.504 0 00-9.023 2.496h.05zm0 0" fill="#ffffff"/><path d="M491.273 477.578l-13.43 13.43-94.952-94.953 13.425-13.43zm0 0" fill="#ffffff"/></svg><svg version="1.0" viewBox="0 0 26 20" id="quote-close" xmlns="http://www.w3.org/2000/svg"><path d="M.4 1.4C.1 2.2 0 4.1.2 5.7c.2 2.2 1 3 3.8 3.9l3.5 1.1-3.8 3.8c-2 2-3.7 4.1-3.7 4.6 0 2.2 4.6.5 8.1-3 3.4-3.3 3.9-4.5 3.9-8.3 0-3.1-.6-5-1.8-6.1C7.9-.4 1.2-.6.4 1.4zm14.7 0c-.7.8-1.1 2.7-.9 4.3.2 2.2 1 3 3.6 3.8 1.7.5 3.2 1.3 3.2 1.7 0 1-3.2 4.3-5.5 5.6-2 1.1-1.2 3.2 1.2 3.2.8 0 3.3-1.7 5.4-3.9 3.3-3.3 3.9-4.5 3.9-8C26 1.8 24.6 0 20.1 0c-2.1 0-4.4.6-5 1.4z" fill="#e9e9e9"/></svg><svg version="1.0" viewBox="0 0 26 20" id="quote-open" xmlns="http://www.w3.org/2000/svg"><path d="M3.9 3.9C.6 7.2 0 8.4 0 11.9 0 18.2 1.4 20 5.9 20s6.4-1.8 5.9-5.7c-.2-2.2-1-3-3.5-3.8C6.5 10 5 9.2 5 8.8c0-1 3.2-4.3 5.5-5.6 2-1.1 1.2-3.2-1.2-3.2C8.5 0 6 1.7 3.9 3.9zm14 0C14.5 7.2 14 8.4 14 12.2c0 5.8 2.3 8.1 7.7 7.6 3.7-.3 3.8-.4 3.8-4.3 0-3.7-.3-4.1-3.5-5.1l-3.5-1.1 3.8-3.8c2-2 3.7-4.1 3.7-4.6 0-2.2-4.6-.5-8.1 3z" fill="#e9e9e9"/></svg><svg viewBox="0 0 512 512" id="schedule" xmlns="http://www.w3.org/2000/svg"><path d="M391.017 251.454h35.714c8.074 0 14.643-6.569 14.643-14.643v-35.714c0-8.074-6.569-14.643-14.643-14.643h-35.714c-8.074 0-14.643 6.569-14.643 14.643v35.714c0 8.074 6.569 14.643 14.643 14.643zm.357-50h35v35h-35zm-.357 145h35.714c8.074 0 14.643-6.569 14.643-14.643v-35.714c0-8.074-6.569-14.643-14.643-14.643h-35.714c-8.074 0-14.643 6.569-14.643 14.643v35.714c0 8.074 6.569 14.643 14.643 14.643zm.357-50h35v35h-35zm-102.273-45h35.714c8.074 0 14.643-6.569 14.643-14.643v-35.714c0-8.074-6.569-14.643-14.643-14.643h-35.714c-8.074 0-14.643 6.569-14.643 14.643v35.714c0 8.074 6.569 14.643 14.643 14.643zm.357-50h35v35h-35zM120.983 372H85.269c-8.074 0-14.643 6.569-14.643 14.643v35.714c0 8.074 6.569 14.643 14.643 14.643h35.714c8.074 0 14.643-6.569 14.643-14.643v-35.714c0-8.074-6.569-14.643-14.643-14.643zm-.357 50h-35v-35h35zm.357-235.546H85.269c-8.074 0-14.643 6.569-14.643 14.643v35.714c0 8.074 6.569 14.643 14.643 14.643h35.714c8.074 0 14.643-6.569 14.643-14.643v-35.714c0-8.075-6.569-14.643-14.643-14.643zm-.357 50h-35v-35h35zm168.475 107.773h35.714c8.074 0 14.643-6.569 14.643-14.643V293.87c0-8.074-6.569-14.643-14.643-14.643h-35.714c-8.074 0-14.643 6.569-14.643 14.643v35.714c0 8.074 6.569 14.643 14.643 14.643zm.357-50h35v35h-35zM448.823 34.274h-32.066V22.807C416.757 10.231 406.526 0 393.95 0h-3.444C377.931 0 367.7 10.231 367.7 22.807v11.467H144.3V22.807C144.3 10.231 134.069 0 121.493 0h-3.444c-12.576 0-22.807 10.231-22.807 22.807v11.467H63.177c-20.705 0-37.55 16.845-37.55 37.55V474.5c0 20.678 16.822 37.5 37.5 37.5h385.748c20.678 0 37.5-16.822 37.5-37.5V71.824c-.001-20.705-16.846-37.55-37.552-37.55zM382.7 22.807c0-4.305 3.502-7.807 7.807-7.807h3.444c4.305 0 7.807 3.502 7.807 7.807v11.467H382.7zm-272.457 0c0-4.305 3.502-7.807 7.807-7.807h3.444c4.305 0 7.807 3.502 7.807 7.807v11.467h-19.057V22.807zM471.374 474.5c0 12.407-10.093 22.5-22.5 22.5H63.126c-12.407 0-22.5-10.093-22.5-22.5v-.047A37.354 37.354 0 0063.177 482H367.26c10.03 0 19.46-3.906 26.552-10.999l77.562-77.562zm-85.215-17.059c.588-2.427.908-4.958.908-7.563v-50.064c0-9.44 7.681-17.121 17.122-17.121h50.063c2.605 0 5.136-.32 7.563-.908zm85.215-315.987H151.8a7.5 7.5 0 000 15h319.574v194.118c0 9.441-7.681 17.122-17.122 17.122h-50.063c-17.712 0-32.122 14.41-32.122 32.121v50.064c0 9.441-7.681 17.122-17.121 17.122H63.177c-12.434 0-22.55-10.116-22.55-22.551V156.454H121.8a7.5 7.5 0 000-15H40.626v-69.63c0-12.434 10.116-22.55 22.55-22.55h32.066v22.052c0 12.576 10.231 22.807 22.807 22.807a7.5 7.5 0 000-15c-4.305 0-7.807-3.502-7.807-7.807V49.274H367.7v22.052c0 12.576 10.231 22.807 22.807 22.807a7.5 7.5 0 000-15c-4.305 0-7.807-3.502-7.807-7.807V49.274h66.124c12.434 0 22.55 10.116 22.55 22.55zM120.983 279.227H85.269c-8.074 0-14.643 6.569-14.643 14.643v35.714c0 8.074 6.569 14.643 14.643 14.643h35.714c8.074 0 14.643-6.569 14.643-14.643V293.87c0-8.075-6.569-14.643-14.643-14.643zm-.357 50h-35v-35h35zm66.559-77.773h35.714c8.074 0 14.643-6.569 14.643-14.643v-35.714c0-8.074-6.569-14.643-14.643-14.643h-35.714c-8.074 0-14.643 6.569-14.643 14.643v35.714c0 8.074 6.569 14.643 14.643 14.643zm.357-50h35v35h-35zM289.449 422a7.5 7.5 0 00-14.992.357c0 8.074 6.569 14.643 14.643 14.643h35.714c8.074 0 14.643-6.569 14.643-14.643v-35.714c0-8.074-6.569-14.643-14.643-14.643H289.1c-8.074 0-14.643 6.569-14.643 14.643v10.3a7.5 7.5 0 0015 0V387h35v35zm-102.264-77.773h35.714c8.074 0 14.643-6.569 14.643-14.643V293.87c0-8.074-6.569-14.643-14.643-14.643h-35.714c-8.074 0-14.643 6.569-14.643 14.643v35.714c0 8.074 6.569 14.643 14.643 14.643zm.357-50h35v35h-35zM187.185 437h35.714c8.074 0 14.643-6.569 14.643-14.643v-35.714c0-8.074-6.569-14.643-14.643-14.643h-35.714c-8.074 0-14.643 6.569-14.643 14.643v35.714c0 8.074 6.569 14.643 14.643 14.643zm.357-50h35v35h-35z" fill="#ffffff"/></svg><svg viewBox="-21 -81 681.335 681" id="tw" xmlns="http://www.w3.org/2000/svg"><path d="M200.965 515.293c241.05 0 372.87-199.703 372.87-372.871 0-5.672-.116-11.32-.37-16.938a266.692 266.692 0 0065.37-67.863c-23.48 10.441-48.753 17.461-75.257 20.637 27.055-16.23 47.828-41.895 57.625-72.488a262.838 262.838 0 01-83.215 31.808c-23.914-25.473-57.965-41.402-95.664-41.402-72.367 0-131.058 58.687-131.058 131.031 0 10.29 1.152 20.29 3.398 29.883C205.746 151.61 109.16 99.465 44.531 20.168 33.281 39.531 26.79 62.031 26.79 86.039c0 45.461 23.137 85.606 58.316 109.082-21.5-.66-41.695-6.562-59.351-16.387-.02.551-.02 1.086-.02 1.672 0 63.469 45.172 116.461 105.145 128.469a131.531 131.531 0 01-34.559 4.61c-8.43 0-16.648-.829-24.632-2.364 16.683 52.07 65.066 89.961 122.425 91.024-44.855 35.156-101.36 56.097-162.77 56.097-10.562 0-21.003-.605-31.261-1.816 58 37.176 126.871 58.87 200.887 58.87"/></svg><svg viewBox="0 0 304.36 304.36" id="vk" xmlns="http://www.w3.org/2000/svg"><path d="M261.945 175.576c10.096 9.857 20.752 19.131 29.807 29.982 4 4.822 7.787 9.798 10.684 15.394 4.105 7.955.387 16.709-6.746 17.184l-44.34-.02c-11.436.949-20.559-3.655-28.23-11.474-6.139-6.253-11.824-12.908-17.727-19.372-2.42-2.642-4.953-5.128-7.979-7.093-6.053-3.929-11.307-2.726-14.766 3.587-3.523 6.421-4.322 13.531-4.668 20.687-.475 10.441-3.631 13.186-14.119 13.664-22.414 1.057-43.686-2.334-63.447-13.641-17.422-9.968-30.932-24.04-42.691-39.971-22.895-31.021-40.428-65.108-56.186-100.15C-2.01 76.458.584 72.22 9.295 72.07c14.465-.281 28.928-.261 43.41-.02 5.879.086 9.771 3.458 12.041 9.012 7.826 19.243 17.402 37.551 29.422 54.521 3.201 4.518 6.465 9.036 11.113 12.216 5.142 3.521 9.057 2.354 11.476-3.374 1.535-3.632 2.207-7.544 2.553-11.434 1.146-13.383 1.297-26.743-.713-40.079-1.234-8.323-5.922-13.711-14.227-15.286-4.238-.803-3.607-2.38-1.555-4.799 3.564-4.172 6.916-6.769 13.598-6.769h50.111c7.889 1.557 9.641 5.101 10.721 13.039l.043 55.663c-.086 3.073 1.535 12.192 7.07 14.226 4.43 1.448 7.35-2.096 10.008-4.905 11.998-12.734 20.561-27.783 28.211-43.366 3.395-6.852 6.314-13.968 9.143-21.078 2.096-5.276 5.385-7.872 11.328-7.757l48.229.043c1.43 0 2.877.021 4.262.258 8.127 1.385 10.354 4.881 7.844 12.817-3.955 12.451-11.65 22.827-19.174 33.251-8.043 11.129-16.645 21.877-24.621 33.072-7.328 10.223-6.746 15.376 2.357 24.255zm0 0" fill-rule="evenodd" clip-rule="evenodd"/></svg><svg viewBox="0 -10 512 512" id="work" xmlns="http://www.w3.org/2000/svg"><path d="M478 0H34C15.254 0 0 15.254 0 34v310c0 18.746 15.254 34 34 34h168v40h-4c-35.29 0-64 28.71-64 64 0 5.523 4.477 10 10 10h224c5.523 0 10-4.477 10-10 0-35.29-28.71-64-64-64h-4v-40h168c18.746 0 34-15.254 34-34V34c0-18.746-15.254-34-34-34zM356.855 472H155.148c4.54-19.46 22.032-34 42.852-34h116c20.824 0 38.316 14.54 42.855 34zM290 418h-68v-40h68zm202-74c0 7.719-6.281 14-14 14H34c-7.719 0-14-6.281-14-14v-26h402c5.523 0 10-4.477 10-10s-4.477-10-10-10H20V34c0-7.719 6.281-14 14-14h444c7.719 0 14 6.281 14 14zm0 0" fill="#ffffff"/><path d="M256.047 327h-.094c-5.523 0-9.953 4.477-9.953 10s4.523 10 10.047 10 10-4.477 10-10-4.477-10-10-10zm205.957-29c-2.633 0-5.211 1.07-7.07 2.93-1.872 1.86-2.93 4.441-2.93 7.07s1.058 5.21 2.93 7.07a10.073 10.073 0 007.07 2.93c2.629 0 5.21-1.07 7.07-2.93 1.86-1.86 2.93-4.441 2.93-7.07s-1.07-5.21-2.93-7.07a10.08 10.08 0 00-7.07-2.93zM330.797 59.93a10 10 0 00-14.14 0l-87.317 87.316L195.09 113a10 10 0 00-14.14 0l-44.805 44.805c-3.907 3.906-3.907 10.238 0 14.144l86.12 86.121a10.009 10.009 0 007.075 2.93c2.648 0 5.195-1.055 7.07-2.93l139.192-139.19c3.906-3.906 3.906-10.238 0-14.145zM229.34 236.86l-71.985-71.981 30.665-30.664 34.25 34.246c3.902 3.902 10.234 3.902 14.14 0l87.317-87.316 30.664 30.664zm0 0" fill="#ffffff"/></svg></svg>