<svg height="512pt" viewBox="0 -10 512 512" width="512pt" xmlns="http://www.w3.org/2000/svg"><path d="m478 0h-444c-18.746094 0-34 15.253906-34 34v310c0 18.746094 15.253906 34 34 34h168v40h-4c-35.289062 0-64 28.710938-64 64 0 5.523438 4.476562 10 10 10h224c5.523438 0 10-4.476562 10-10 0-35.289062-28.710938-64-64-64h-4v-40h168c18.746094 0 34-15.253906 34-34v-310c0-18.746094-15.253906-34-34-34zm-121.144531 472h-201.707031c4.539062-19.460938 22.03125-34 42.851562-34h116c20.824219 0 38.316406 14.539062 42.855469 34zm-66.855469-54h-68v-40h68zm202-74c0 7.71875-6.28125 14-14 14h-444c-7.71875 0-14-6.28125-14-14v-26h402c5.523438 0 10-4.476562 10-10s-4.476562-10-10-10h-402v-264c0-7.71875 6.28125-14 14-14h444c7.71875 0 14 6.28125 14 14zm0 0"/><path d="m256.046875 327h-.09375c-5.523437 0-9.953125 4.476562-9.953125 10s4.523438 10 10.046875 10 10-4.476562 10-10-4.476563-10-10-10zm0 0"/><path d="m462.003906 298c-2.632812 0-5.210937 1.070312-7.070312 2.929688-1.871094 1.859374-2.929688 4.441406-2.929688 7.070312s1.058594 5.210938 2.929688 7.070312c1.859375 1.859376 4.4375 2.929688 7.070312 2.929688 2.628906 0 5.210938-1.070312 7.070313-2.929688 1.859375-1.859374 2.929687-4.441406 2.929687-7.070312s-1.070312-5.210938-2.929687-7.070312c-1.859375-1.859376-4.441407-2.929688-7.070313-2.929688zm0 0"/><path d="m330.796875 59.929688c-1.875-1.875-4.417969-2.929688-7.070313-2.929688-2.652343 0-5.195312 1.054688-7.070312 2.929688l-87.316406 87.316406-34.25-34.246094c-1.875-1.875-4.417969-2.929688-7.070313-2.929688-2.652343 0-5.195312 1.054688-7.070312 2.929688l-44.804688 44.804688c-3.90625 3.90625-3.90625 10.238281 0 14.144531l86.121094 86.121093c1.875 1.875 4.421875 2.929688 7.074219 2.929688 2.648437 0 5.195312-1.054688 7.070312-2.929688l139.191406-139.191406c3.90625-3.90625 3.90625-10.238281 0-14.144531zm-101.457031 176.929687-71.984375-71.980469 30.664062-30.664062 34.25 34.246094c3.902344 3.902343 10.234375 3.902343 14.140625 0l87.316406-87.316407 30.664063 30.664063zm0 0"/></svg>